<svg width="192" height="192" viewBox="0 0 192 192" fill="none" xmlns="http://www.w3.org/2000/svg">
  <!-- Background circle -->
  <circle cx="96" cy="96" r="96" fill="#0d6efd"/>
  
  <!-- Document icon background -->
  <rect x="48" y="36" width="96" height="120" rx="8" fill="white" opacity="0.95"/>
  
  <!-- Document lines -->
  <rect x="60" y="60" width="72" height="3" rx="1.5" fill="#0d6efd" opacity="0.7"/>
  <rect x="60" y="72" width="72" height="3" rx="1.5" fill="#0d6efd" opacity="0.7"/>
  <rect x="60" y="84" width="48" height="3" rx="1.5" fill="#0d6efd" opacity="0.7"/>
  <rect x="60" y="96" width="60" height="3" rx="1.5" fill="#0d6efd" opacity="0.7"/>
  <rect x="60" y="108" width="36" height="3" rx="1.5" fill="#0d6efd" opacity="0.7"/>
  
  <!-- Invoice/document icon -->
  <rect x="96" y="120" width="36" height="24" rx="4" fill="#0d6efd"/>
  <rect x="102" y="126" width="24" height="2" rx="1" fill="white"/>
  <rect x="102" y="132" width="18" height="2" rx="1" fill="white"/>
  <rect x="102" y="138" width="15" height="2" rx="1" fill="white"/>
  
  <!-- Currency symbol -->
  <circle cx="132" cy="72" r="16" fill="#28a745"/>
  <text x="132" y="78" text-anchor="middle" fill="white" font-family="Arial, sans-serif" font-size="16" font-weight="bold">$</text>
  
  <!-- Decorative elements -->
  <circle cx="24" cy="24" r="6" fill="white" opacity="0.3"/>
  <circle cx="168" cy="168" r="8" fill="white" opacity="0.2"/>
  <circle cx="24" cy="168" r="4" fill="white" opacity="0.4"/>
  <circle cx="168" cy="24" r="5" fill="white" opacity="0.3"/>
  
  <!-- Modern geometric accent -->
  <path d="M156 48 L168 48 L168 60 L156 60 Z" fill="white" opacity="0.2"/>
  <path d="M24 132 L36 132 L36 144 L24 144 Z" fill="white" opacity="0.2"/>
</svg>
